<?xml version="1.0" encoding="UTF-8" standalone="no"?>
<!-- Created with Inkscape (http://www.inkscape.org/) -->

<svg
   width="100mm"
   height="100mm"
   viewBox="0 0 100 100"
   version="1.1"
   id="svg5"
   sodipodi:docname="root.svg"
   inkscape:version="1.2.2 (b0a8486541, 2022-12-01)"
   xmlns:inkscape="http://www.inkscape.org/namespaces/inkscape"
   xmlns:sodipodi="http://sodipodi.sourceforge.net/DTD/sodipodi-0.dtd"
   xmlns="http://www.w3.org/2000/svg"
   xmlns:svg="http://www.w3.org/2000/svg">
  <sodipodi:namedview
     id="namedview7"
     pagecolor="#ffffff"
     bordercolor="#666666"
     borderopacity="1.0"
     inkscape:pageshadow="2"
     inkscape:pageopacity="0"
     inkscape:pagecheckerboard="0"
     inkscape:document-units="mm"
     showgrid="false"
     inkscape:zoom="1.3932941"
     inkscape:cx="220.34113"
     inkscape:cy="252.27983"
     inkscape:window-width="1854"
     inkscape:window-height="1011"
     inkscape:window-x="66"
     inkscape:window-y="32"
     inkscape:window-maximized="1"
     inkscape:current-layer="layer2"
     fit-margin-top="0"
     fit-margin-left="0"
     fit-margin-right="0"
     fit-margin-bottom="0"
     inkscape:showpageshadow="2"
     inkscape:deskcolor="#d1d1d1" />
  <defs
     id="defs2" />
  <g
     inkscape:groupmode="layer"
     id="layer2"
     inkscape:label="Calque 2"
     style="display:inline;opacity:1"
     transform="translate(-4.6846664,-6.1112851)">
    <path
       style="fill:#000000;fill-opacity:1;stroke:none;stroke-width:0.218763px;stroke-linecap:butt;stroke-linejoin:miter;stroke-opacity:1"
       d="m 4.8156867,39.612777 c 3.2501418,5.325145 4.9064325,8.844848 8.1360953,9.126927 18.769376,8.328094 12.704974,2.949799 18.039797,4.187802 3.953622,-0.168945 8.845076,2.050413 11.860832,-0.506926 1.255882,-3.813606 -0.369977,-8.117427 -1.124228,-12.272983 -1.259991,-1.593477 -3.342305,-2.129494 -5.061178,-3.132877 2.065459,0.601838 4.035279,1.877117 6.197059,1.800731 0.624931,-1.237835 0.331591,-5.013215 0.467356,-7.602808 0.379548,3.032496 0.183805,6.651788 1.138642,9.097487 1.865167,0.854148 3.292486,-1.235637 4.923486,-1.955902 -1.574164,1.405276 -3.471704,2.798378 -4.2614,4.233185 -0.200536,4.031473 2.219858,6.310917 2.913306,9.459964 7.146778,-3.608405 10.99884,-11.6414 16.459258,-17.573058 -3.303969,5.407005 -8.247002,10.007196 -9.911373,16.221285 13.6873,-7.981002 16.694778,-7.287967 25.042162,-10.93195 0.482931,-1.746345 1.437308,0.315678 1.146919,-7.677632 0.124594,-0.60605 -0.508554,-1.733676 -0.908951,-2.701094 0.736666,1.076375 1.20507,2.398202 2.536412,2.930479 2.149528,-1.279301 3.935714,-3.311152 5.902974,-4.967952 l -3.836972,3.834522 c -4.195063,3.93895 -2.124268,6.775123 -2.124268,6.775123 2.979666,1.752106 10.699267,1.418572 14.677849,-0.259133 1.204095,-0.270803 1.529706,-3.043586 2.193265,-4.853873 -0.376296,1.920256 -0.647204,4.450554 -0.302816,5.891905 1.626407,1.854559 2.221147,1.147229 5.633737,2.379832 -4.564225,-0.351574 -5.409056,-0.877734 -7.360342,-1.691503 -2.026089,-0.696753 -9.685175,1.221876 -13.994381,0.688924 -2.903597,2.402403 -7.906323,2.842969 -10.854667,5.479464 3.210488,2.525135 6.445913,2.145664 9.673401,2.691285 5.80865,0.184505 6.547185,-1.999259 9.155754,-3.309517 -1.760406,1.704239 -3.34932,2.596605 -5.139442,4.605058 5.131901,-0.375039 9.417839,0.584613 14.425217,0.251271 -8.659936,0.659788 -7.337035,-0.754716 -20.940222,1.469529 -4.706963,0.421209 -1.075457,4.624067 -1.519825,6.978437 -1.112358,-2.766889 -1.606244,-5.428532 -3.625991,-8.349839 -3.212539,-3.287523 -7.822012,-2.257111 -10.132048,-1.22617 -6.138463,3.225528 -11.254985,8.430016 -18.644052,9.233771 2.255529,0.893787 5.815333,0.774303 7.06081,2.743209 3.304771,0.857267 10.466865,-1.011172 16.003984,-1.566847 -5.064044,1.070869 -8.575714,3.959739 -15.192126,3.212613 0.384853,2.540398 3.240898,3.347783 5.116381,4.842828 9.397965,2.736449 16.390028,-0.711903 24.583391,-1.072092 -6.000992,1.006971 -6.523139,2.428503 -8.709251,3.72413 1.237862,4.145171 4.186743,5.713133 6.563835,8.498262 -3.980641,-2.881189 -7.101659,-6.663847 -12.012633,-8.56941 -2.648537,0.546307 -5.764214,0.03746 -8.661414,0.02208 2.237139,3.553711 3.019066,6.218504 4.243004,9.153305 -0.167291,2.511897 -1.979737,4.059991 -3.207702,5.950497 0.913226,-2.362465 2.618648,-3.836087 0.727762,-7.483361 -1.622446,-5.266793 -5.614803,-7.076221 -8.551009,-10.388602 -1.655308,2.815146 -1.663667,7.60924 -1.645353,11.406268 C 49.457701,74.07471 51.876382,68.089102 49.852898,63.3637 47.976166,59.613917 41.9243,61.654855 38.759679,60.319933 32.501855,57.660216 25.117542,59.569037 17.9274,60.690383 12.595044,61.709054 10.893757,63.382056 8.966687,65.952732 7.2714796,67.592975 7.2488801,70.662229 6.5293232,73.136026 7.6981295,61.902406 6.3713545,50.753697 4.8156867,39.612777 Z"
       id="path2033"
       sodipodi:nodetypes="ccccccccccccccccccccccccccccccccccccccccccccccccccccccccc" />
    <path
       style="opacity:0;fill:#ffffff;fill-opacity:1;stroke:#ffffff;stroke-width:0;stroke-miterlimit:4;stroke-dasharray:none;stroke-opacity:1"
       d="m 102.14835,114.79801 c 0.57139,-1.74836 -0.58109,-6.04469 -2.441633,-9.10217 -0.391612,-0.64355 -2.54191,-2.94606 -4.778438,-5.11669 -3.11952,-3.027607 -4.1476,-3.879229 -4.415062,-3.65726 -0.886471,0.735711 -1.92508,6.19839 -1.980491,10.41665 l -0.02656,2.02122 -0.401923,-1.20851 c -0.287295,-0.86383 -0.433187,-2.80695 -0.511543,-6.8132 -0.204023,-10.431536 -1.016563,-11.54476 -8.771834,-12.017853 -3.298812,-0.201234 -4.586872,-0.403482 -6.643505,-1.043141 -5.717569,-1.778291 -9.135544,-1.776349 -20.141692,0.01143 -5.668084,0.920697 -8.312303,1.581737 -10.24528,2.561248 -2.496011,1.264828 -5.529861,4.517181 -6.56776,7.040788 l -0.630335,1.532657 -0.0064,-6.222807 c -0.007,-6.81736 -0.445579,-13.185179 -1.476616,-21.438452 -0.369043,-2.954115 -0.67261,-5.608544 -0.674595,-5.898734 -0.0019,-0.29019 0.806077,0.797462 1.795693,2.417003 2.242206,3.669448 4.593397,6.127604 6.276319,6.56186 0.654256,0.168822 2.277208,0.776883 3.606559,1.351243 9.446591,4.08151 13.906502,5.234186 16.021079,4.140697 0.929473,-0.48065 2.992099,-0.401913 8.797546,0.33583 3.923028,0.498528 6.19242,0.377309 7.742698,-0.413586 1.635665,-0.834453 1.814473,-1.315545 1.809589,-4.868809 -0.0034,-2.497394 -0.174686,-3.859258 -0.894948,-7.116731 -0.772538,-3.4939 -0.993143,-4.12446 -1.662792,-4.752858 L 75.154342,62.793313 76.51193,62.9541 c 1.469554,0.174046 1.830364,-0.0607 1.838089,-1.195887 0.008,-1.181418 0.423194,-0.578673 0.736331,1.069048 0.364781,1.919476 0.873595,2.457204 2.138023,2.259524 l 0.85607,-0.13384 -0.923208,1.209471 c -0.507767,0.66521 -0.921115,1.472129 -0.918551,1.793153 0.01172,1.464717 0.866857,4.326644 2.119725,7.094061 0.751763,1.660533 1.36684,3.194241 1.36684,3.408238 0,0.790485 0.522277,0.656762 2.168705,-0.555268 2.343375,-1.725096 6.30696,-5.614236 8.759381,-8.594862 1.133628,-1.377791 2.110224,-2.455995 2.17021,-2.396008 0.05999,0.05999 -0.368864,0.813271 -0.953003,1.67396 -1.886532,2.779689 -4.45091,8.40885 -4.024791,8.834972 0.07286,0.07286 1.206175,-0.488836 2.518471,-1.248214 3.143779,-1.819191 9.187088,-4.842695 12.039758,-6.02356 1.25388,-0.519044 4.67043,-1.771695 7.59235,-2.783665 7.77647,-2.693292 8.30588,-2.945154 9.15312,-4.354523 0.66454,-1.105451 0.71952,-1.443038 0.81564,-5.008351 l 0.10307,-3.823002 0.68382,0.537898 c 0.39599,0.311486 0.88971,0.472551 1.17295,0.382654 0.41527,-0.131797 0.36834,0.07437 -0.31075,1.365348 -0.87976,1.672452 -1.06976,3.736853 -0.45564,4.950568 1.02097,2.017747 9.68537,2.638774 15.61661,1.119333 2.61421,-0.6697 3.37032,-1.087265 3.95227,-2.182664 l 0.49713,-0.935755 v 1.480252 c 0,1.663501 0.41136,2.441336 1.70982,3.233102 1.1872,0.723921 0.64747,0.641847 -2.11526,-0.321657 l -2.39932,-0.836763 -5.39981,0.581369 c -2.9699,0.319752 -6.53837,0.58674 -7.92994,0.593307 -2.39161,0.0113 -2.61099,0.06147 -4.00718,0.916734 -0.81238,0.497636 -2.90013,1.452258 -4.63944,2.121381 -1.7393,0.669123 -3.6729,1.472975 -4.29689,1.78634 -1.31468,0.66023 -2.88013,1.788967 -2.88013,2.076661 0,0.10898 0.63668,0.584015 1.41485,1.055632 1.79947,1.090597 4.53219,1.776945 8.83361,2.218651 2.93311,0.301196 3.67107,0.293579 5.37112,-0.05544 1.08396,-0.222539 2.21253,-0.501841 2.50794,-0.620676 0.32969,-0.132625 0.0964,0.243684 -0.60425,0.974453 -0.62775,0.654783 -1.14136,1.260628 -1.14136,1.346319 0,0.08569 1.41999,0.119057 3.15553,0.07414 l 3.15553,-0.08167 -2.78776,0.249142 c -4.06474,0.363268 -12.14403,1.584108 -12.9149,1.951541 -0.96947,0.462089 -1.39023,1.453192 -1.2174,2.867548 l 0.14767,1.208501 -0.7447,-1.750828 c -1.36831,-3.216944 -2.22502,-4.497392 -3.67148,-5.487458 -3.22294,-2.206011 -7.62814,-2.228966 -11.87051,-0.06186 -0.72384,0.369758 -3.491377,2.079189 -6.15008,3.798732 -6.705155,4.336631 -10.858036,6.283851 -14.405273,6.75441 -0.791057,0.104936 -1.28714,0.29682 -1.229649,0.47562 0.05301,0.164846 0.994267,0.517917 2.091698,0.784603 3.922514,0.953207 4.826167,1.286804 5.798733,2.140691 0.980342,0.860714 1.001421,0.865413 3.69384,0.823606 1.489329,-0.02313 4.745045,-0.362675 7.234922,-0.754552 2.489879,-0.391875 4.573109,-0.666446 4.629389,-0.610158 0.0563,0.05629 -1.43706,0.61065 -3.31855,1.231915 -3.725728,1.230236 -7.187266,1.789449 -9.396254,1.517971 -1.662803,-0.204357 -1.783739,0.06696 -0.805669,1.807471 0.886084,1.576814 5.186275,4.359109 7.60376,4.919761 4.782573,1.109152 9.496753,1.00172 17.824123,-0.40621 4.82952,-0.816538 6.07317,-0.903533 4.23256,-0.296076 -0.50808,0.167682 -1.83707,0.94057 -2.95331,1.717529 l -2.02954,1.412657 0.62478,1.53722 c 0.34363,0.84548 0.95162,1.96574 1.3511,2.48949 0.39949,0.52375 0.67579,1.00281 0.61402,1.06458 -0.0618,0.0618 -1.06653,-0.61933 -2.23279,-1.51356 -1.16627,-0.89422 -2.90394,-2.064 -3.8615,-2.5995 l -1.74102,-0.97363 -5.8556,-0.0767 c -3.22058,-0.0422 -5.8556,-0.0391 -5.8556,0.007 0,0.0459 0.655537,1.34277 1.45675,2.88193 0.80121,1.53915 1.95513,4.05427 2.56427,5.58916 1.22766,3.09343 1.23763,3.63034 0.10395,5.60167 -0.71635,1.24564 -1.05211,1.48901 -0.74102,0.53711 z"
       id="path11577" />
    <rect
       style="opacity:0;fill:#ffffff;fill-opacity:1;stroke:#ffffff;stroke-width:0;stroke-miterlimit:4;stroke-dasharray:none;stroke-opacity:1"
       id="rect25654"
       width="126.43032"
       height="74.236649"
       x="29.186386"
       y="47.04567"
       ry="0.63274574" />
    <rect
       style="opacity:0;fill:#ffffff;fill-opacity:1;stroke:#ffffff;stroke-width:0;stroke-miterlimit:4;stroke-dasharray:none;stroke-opacity:1"
       id="rect25656"
       width="126.43031"
       height="74.236649"
       x="29.186386"
       y="47.04567"
       ry="0.63274574" />
  </g>
</svg>
