<?xml version="1.0" encoding="UTF-8" standalone="no"?>
<!-- Created with Inkscape (http://www.inkscape.org/) -->

<svg
   version="1.1"
   id="svg55"
   width="521.33301"
   height="521.33301"
   viewBox="0 0 521.33302 521.333"
   sodipodi:docname="taglink_logo_2.png"
   xmlns:inkscape="http://www.inkscape.org/namespaces/inkscape"
   xmlns:sodipodi="http://sodipodi.sourceforge.net/DTD/sodipodi-0.dtd"
   xmlns="http://www.w3.org/2000/svg"
   xmlns:svg="http://www.w3.org/2000/svg">
  <defs
     id="defs59" />
  <sodipodi:namedview
     id="namedview57"
     pagecolor="#ffffff"
     bordercolor="#666666"
     borderopacity="1.0"
     inkscape:showpageshadow="2"
     inkscape:pageopacity="0.0"
     inkscape:pagecheckerboard="0"
     inkscape:deskcolor="#d1d1d1"
     showgrid="false" />
  <g
     inkscape:groupmode="layer"
     inkscape:label="Image"
     id="g61">
    <path
       style="fill:#000000;stroke-width:1.33333"
       d="m 80.400882,518.55975 c -3.998014,-1.97899 -6.380817,-4.38655 -8.333333,-8.41991 -2.718004,-5.61465 -2.734373,-6.79405 -2.734373,-197.01777 V 121.75275 l 3.082712,-5.87638 C 75.246945,110.47971 106.38843,82.376426 185.30597,13.999999 202.63538,-1.0147031 196.99237,-0.03722877 264.16583,0.34001152 l 58.16598,0.32665512 4.67443,3.33333316 C 339.9742,13.247477 442.02714,104.99925 447.33317,112.18121 l 4,5.41418 0.34649,195.24305 c 0.38307,215.8489 0.99108,200.35251 -8.07789,205.88218 -6.28732,3.83361 -14.11291,3.25694 -30.13289,-2.22047 -16.16899,-5.52835 -133.89587,-47.9097 -138.53177,-49.87106 -1.68451,-0.71268 -4.15596,-1.29578 -5.49212,-1.29578 -1.33616,0 -19.45792,5.75386 -40.2706,12.78635 -118.65229,40.092 -128.37687,43.18445 -135.841214,43.19812 -4.763966,0.009 -9.295032,-0.9576 -12.932294,-2.75803 z M 409.93317,480.13273 c -0.69667,-0.66034 -7.56667,-3.74154 -15.26667,-6.84712 -21.17438,-8.54012 -50.51866,-22.84698 -59.83024,-29.17035 -29.93922,-20.33133 -45.57451,-52.74204 -41.61982,-86.27448 0.79753,-6.76241 1.45007,-12.94304 1.45007,-13.73472 0,-0.84865 2.89045,-1.43941 7.04276,-1.43941 3.87352,0 10.11877,-0.79791 13.87834,-1.77313 l 6.83559,-1.77312 3.04942,6.51066 c 9.32979,19.91947 37.72348,30.4747 60.22134,22.38703 26.83926,-9.64836 40.45708,-36.50932 31.69524,-62.51844 l -2.61063,-7.74956 7.19068,-7.42396 c 16.04855,-16.56922 15.24419,-40.08569 -1.9406,-56.73575 l -7.65903,-7.42071 2.40646,-5.44019 c 12.14006,-27.44462 -1.01278,-62.53782 -28.47475,-75.97371 -8.9074,-4.35799 -24.8978,-7.74124 -33.95848,-7.18495 l -6.99031,0.42917 -1.99449,-5.85959 c -4.63281,-13.61067 -14.97732,-25.03791 -28.06845,-31.0063 -5.67453,-2.587076 -8.91504,-3.027739 -22.62608,-3.076819 -14.73996,-0.05276 -16.57377,0.225201 -23.23529,3.521949 -6.49498,3.21433 -7.58772,3.39544 -10.71846,1.77647 -11.81009,-6.107236 -32.09532,-5.571538 -45.96412,1.21384 -13.92405,6.8124 -28.22534,23.19463 -31.76691,36.38921 -1.38862,5.17352 -1.78315,5.54842 -4.91108,4.66667 -1.87063,-0.52732 -8.89882,-0.9372 -15.61819,-0.91084 -11.48052,0.0451 -12.82453,0.35627 -22.29366,5.16255 -12.0555,6.11906 -22.05322,16.07684 -27.22812,27.11934 -3.22109,6.87335 -3.59451,9.19388 -3.59451,22.33685 0,12.3923 0.465,15.67459 2.99864,21.16643 l 2.99865,6.49976 -5.92378,5.21432 c -3.2752,2.88295 -7.596655,8.62096 -9.665314,12.83357 -3.304759,6.7298 -3.740786,9.09792 -3.735127,20.28592 0.0057,11.26575 0.416396,13.44616 3.713387,19.71453 4.846094,9.21363 11.917384,16.9235 19.502014,21.2632 3.36134,1.92327 6.30577,3.63431 6.54317,3.80231 0.23741,0.16801 -0.58347,2.26851 -1.82418,4.66777 -3.4678,6.70599 -2.17975,22.96833 2.44413,30.85839 4.31911,7.37 11.52572,13.84133 19.54733,17.55292 5.05726,2.34 8.62126,2.80754 21.40107,2.80754 13.95707,0 16.03914,-0.33057 23.19688,-3.68304 4.32495,-2.02566 10.65031,-5.68512 14.05636,-8.13213 l 6.19283,-4.44909 5.16577,4.46546 c 6.00012,5.1867 10.38522,5.6815 13.31256,1.50212 3.71596,-5.30526 2.62444,-8.40646 -4.58765,-13.03446 -7.41204,-4.7563 -13.33675,-11.10797 -13.33675,-14.29789 0,-1.32047 -2.6158,0.38281 -7.09783,4.62172 -14.77519,13.97375 -33.16787,19.28566 -49.73845,14.36474 -17.45525,-5.18365 -21.76938,-25.06549 -8.35064,-38.48422 2.85281,-2.85282 5.18692,-5.41634 5.18692,-5.69674 0,-0.28038 -1.70416,-0.5098 -3.78703,-0.5098 -5.49145,0 -19.14752,-7.24828 -25.35927,-13.46004 -7.37151,-7.37149 -9.96144,-14.72618 -9.30111,-26.41252 0.43505,-7.69915 1.2289,-10.35441 4.50559,-15.06997 4.30279,-6.19228 12.75256,-11.27432 20.93685,-12.5923 l 4.99503,-0.80439 -6.05077,-5.32611 c -9.51509,-8.37552 -11.92067,-14.09496 -11.91745,-28.33466 0.002,-10.44512 0.46774,-12.88451 3.59156,-18.82632 3.89595,-7.41048 8.99917,-12.32177 17.56464,-16.90408 4.60673,-2.46448 7.631,-2.93627 18.82196,-2.93627 12.38959,0 13.86441,0.29138 20.83637,4.11646 l 7.50302,4.11646 0.67336,-8.78313 c 1.44668,-18.87043 11.15036,-33.7528 27.14031,-41.62462 13.63457,-6.71228 29.49128,-5.98936 40.89269,1.86433 l 3.7124,2.55723 4.75657,-3.62801 c 5.95672,-4.54342 14.89183,-7.28759 23.69719,-7.27795 8.87145,0.01 14.82864,1.74768 22.35829,6.52285 8.28315,5.25301 14.21065,17.00505 15.33372,30.40106 l 0.79207,9.44772 4.81868,-2.14453 c 7.66157,-3.40975 30.71409,-2.92483 40.2578,0.84685 15.70232,6.20556 25.01785,19.01174 26.23837,36.07017 1.01028,14.12003 -2.0914,22.809 -11.50103,32.21863 l -7.63105,7.63105 6.72729,1.54776 c 17.648,4.06031 26.06062,12.80796 26.06062,27.09849 0,5.11524 -0.9003,9.55679 -2.62068,12.92903 -2.90539,5.69503 -11.6994,13.89291 -18.39942,17.15215 l -4.35344,2.11773 4.62167,4.74347 c 14.64832,15.03437 10.05973,39.80338 -9.20892,49.70938 -6.43583,3.30865 -19.41608,4.52768 -26.83372,2.52005 -7.22889,-1.95653 -15.28965,-7.93509 -18.31935,-13.58722 l -2.44717,-4.56541 4.78051,-7.92156 c 4.61529,-7.64776 5.8973,-10.92603 3.75501,-9.60203 -1.81516,1.12184 -41.90733,9.03519 -42.54502,8.39749 -1.20124,-1.20124 5.17477,-11.89406 10.60532,-17.7855 7.27922,-7.89703 13.04166,-10.65103 30.5285,-14.59023 8.01569,-1.80567 16.10009,-3.86327 17.96532,-4.57241 6.14149,-2.335 21.80472,-12.01432 21.80472,-13.47456 0,-1.75946 -14.41532,-0.55895 -35.30093,2.93984 -8.04884,1.34834 -14.80911,2.2767 -15.0228,2.063 -0.21371,-0.2137 1.72812,-3.90363 4.31516,-8.19983 5.32802,-8.84805 7.0423,-14.06756 8.0755,-24.58754 0.71984,-7.32931 0.71892,-7.33152 -1.67334,-4.02476 -13.39283,18.51246 -23.24076,30.81381 -33.64324,42.02475 -12.48672,13.45719 -30.2548,34.03832 -35.70811,41.36143 l -2.95776,3.97191 -0.15634,-17.33334 c -0.086,-9.53333 -0.86222,-23.03333 -1.72496,-30 l -1.56862,-12.66666 -6.14653,16.66666 c -3.3806,9.16667 -6.57104,18.61667 -7.08989,21 -0.51884,2.38334 -1.34568,4.25782 -1.83742,4.16551 -0.49172,-0.0923 -11.42014,-11.04229 -24.28536,-24.33333 -23.21688,-23.9853 -32.13313,-34.97177 -39.42495,-48.57883 -3.78366,-7.06058 -3.79692,-7.06972 -4.83944,-3.33333 -1.73554,6.2202 2.41295,21.467 8.97313,32.97862 5.48519,9.62524 5.68669,10.30783 2.83146,9.5912 -3.98579,-1.00036 -39.50244,-7.02506 -48.14889,-8.1675 l -6.66667,-0.88086 4.50194,4.68336 c 9.25458,9.62754 28.50441,17.71459 46.59924,19.57684 7.09435,0.73012 15.6844,2.24776 19.089,3.37252 16.86212,5.57064 27.03902,26.17915 28.72145,58.16168 1.77239,33.69249 -6.37164,56.24042 -27.51867,76.18945 -14.26772,13.45945 -34.37308,24.15045 -75.55727,40.17748 -22.53854,8.77099 -22.71424,8.89229 -11.83569,8.17173 17.40303,-1.15273 53.78146,-11.92648 102.35379,-30.31286 15.57208,-5.89459 30.11288,-11.3109 32.31288,-12.0362 3.51843,-1.16 8.93703,0.54006 45.00796,14.12109 49.23632,18.53792 78.0609,27.33647 95.6587,29.19933 2.56667,0.2717 5.53667,0.59002 6.6,0.70738 1.19191,0.1316 1.44758,-0.24703 0.66667,-0.9872 z M 239.62727,256.25279 c 5.7049,-4.26096 14.93188,-10.90779 20.50437,-14.77071 l 10.13179,-7.0235 17.62548,11.56898 c 9.69401,6.36295 17.8373,11.35716 18.09621,11.09826 0.60725,-0.60724 -3.65949,-18.50883 -7.47408,-31.35828 -1.91888,-6.46376 -2.48845,-10.30814 -1.61215,-10.88128 0.74528,-0.48746 8.97746,-6.58627 18.29374,-13.55294 l 16.93866,-12.66666 -18.39906,-0.83732 c -10.11948,-0.46052 -20.8225,-0.91052 -23.78448,-1 l -5.38542,-0.16268 -7.0769,-17.33333 c -3.89231,-9.53334 -7.6129,-17.33334 -8.26798,-17.33334 -1.21002,0 -6.74582,11.3774 -12.72202,26.1468 l -3.29648,8.14679 -8.93288,0.84373 c -4.9131,0.46404 -14.7829,0.84799 -21.9329,0.8532 -7.15,0.005 -13,0.50109 -13,1.10195 0,1.69946 20.52299,16.38012 33.00346,23.60828 0.18522,0.10733 -0.86851,3.6983 -2.34166,7.98005 -2.6511,7.70559 -11.99513,40.77332 -11.99513,42.4498 0,1.61546 1.23028,0.88774 11.62743,-6.8778 z M 272.66651,70.805513 c 17.05637,-7.896845 20.45989,-26.927859 7.10422,-39.723736 -5.51769,-5.286407 -10.17006,-7.090097 -18.19102,-7.052495 -8.26686,0.03876 -16.35332,3.87389 -20.99234,9.955948 -7.03758,9.226759 -5.59429,25.204665 2.97692,32.955656 7.09416,6.415283 19.91558,8.117901 29.10222,3.864627 z"
       id="path282" />
  </g>
</svg>
